<svg width="26.000000" height="26.000000" viewBox="0 0 26 26" fill="none" xmlns="http://www.w3.org/2000/svg" xmlns:xlink="http://www.w3.org/1999/xlink">
	<desc>
			Created with Pixso.
	</desc>
	<defs>
		<clipPath id="clip44_539">
			<rect id="heart" width="26.000000" height="26.000000" fill="white" fill-opacity="0"/>
		</clipPath>
	</defs>
	<rect id="heart" width="26.000000" height="26.000000" fill="#FFFFFF" fill-opacity="0"/>
	<g clip-path="url(#clip44_539)">
		<path id="Vector" d="M20.6433 3.7019C19.9202 3.40222 19.1452 3.24805 18.3625 3.24805C17.5798 3.24805 16.8047 3.40222 16.0817 3.7019C15.3586 4.00146 14.7016 4.44055 14.1483 4.99414L13 6.14258L11.8516 4.99414C10.734 3.87646 9.21809 3.24866 7.63747 3.24866C6.05685 3.24866 4.54097 3.87646 3.4233 4.99414C2.30563 6.11182 1.67773 7.62769 1.67773 9.20837C1.67773 10.7889 2.30563 12.3048 3.4233 13.4225L4.57163 14.5708L13 22.9991L21.4283 14.5708L22.5766 13.4225C23.1302 12.8693 23.5693 12.2123 23.869 11.4891C24.1686 10.7661 24.3228 9.99109 24.3228 9.20837C24.3228 8.42566 24.1686 7.65063 23.869 6.92761C23.5693 6.20447 23.1302 5.54749 22.5766 4.99414C22.0233 4.44055 21.3663 4.00146 20.6433 3.7019Z" stroke="#121417" stroke-opacity="1.000000" stroke-width="2.000000" stroke-linejoin="round"/>
	</g>
</svg>
